<?xml version="1.0" encoding="UTF-8" standalone="no"?>
<!DOCTYPE svg PUBLIC "-//W3C//DTD SVG 1.1//EN"
 "http://www.w3.org/Graphics/SVG/1.1/DTD/svg11.dtd">
<!-- Generated by graphviz version 12.2.1 (0)
 -->
<!-- Title: snakemake_dag Pages: 1 -->
<svg width="1468pt" height="764pt"
 viewBox="0.00 0.00 1468.00 764.00" xmlns="http://www.w3.org/2000/svg" xmlns:xlink="http://www.w3.org/1999/xlink">
<g id="graph0" class="graph" transform="scale(1 1) rotate(0) translate(4 760)">
<title>snakemake_dag</title>
<polygon fill="white" stroke="none" points="-4,4 -4,-760 1464,-760 1464,4 -4,4"/>
<!-- 0 -->
<g id="node1" class="node">
<title>0</title>
<path fill="none" stroke="#567bd8" stroke-width="2" d="M760,-36C760,-36 730,-36 730,-36 724,-36 718,-30 718,-24 718,-24 718,-12 718,-12 718,-6 724,0 730,0 730,0 760,0 760,0 766,0 772,-6 772,-12 772,-12 772,-24 772,-24 772,-30 766,-36 760,-36"/>
<text text-anchor="middle" x="745" y="-14.88" font-family="sans" font-size="10.00">all</text>
</g>
<!-- 1 -->
<g id="node2" class="node">
<title>1</title>
<path fill="none" stroke="#56d8c9" stroke-width="2" d="M1005.38,-684C1005.38,-684 958.62,-684 958.62,-684 952.62,-684 946.62,-678 946.62,-672 946.62,-672 946.62,-660 946.62,-660 946.62,-654 952.62,-648 958.62,-648 958.62,-648 1005.38,-648 1005.38,-648 1011.38,-648 1017.38,-654 1017.38,-660 1017.38,-660 1017.38,-672 1017.38,-672 1017.38,-678 1011.38,-684 1005.38,-684"/>
<text text-anchor="middle" x="982" y="-669.25" font-family="sans" font-size="10.00">align</text>
<text text-anchor="middle" x="982" y="-656.5" font-family="sans" font-size="10.00">type: reads</text>
</g>
<!-- 1&#45;&gt;0 -->
<g id="edge1" class="edge">
<title>1&#45;&gt;0</title>
<path fill="none" stroke="grey" stroke-width="2" d="M945.89,-663.66C768.72,-656.64 0,-620.54 0,-523 0,-523 0,-523 0,-161 0,-105.06 38.22,-95.47 89,-72 199.33,-21 579.34,-18.16 704.6,-18.66"/>
<polygon fill="grey" stroke="grey" stroke-width="2" points="704.21,-22.16 714.22,-18.71 704.24,-15.16 704.21,-22.16"/>
</g>
<!-- 5 -->
<g id="node6" class="node">
<title>5</title>
<path fill="none" stroke="#d87d56" stroke-width="2" d="M965.75,-468C965.75,-468 924.25,-468 924.25,-468 918.25,-468 912.25,-462 912.25,-456 912.25,-456 912.25,-444 912.25,-444 912.25,-438 918.25,-432 924.25,-432 924.25,-432 965.75,-432 965.75,-432 971.75,-432 977.75,-438 977.75,-444 977.75,-444 977.75,-456 977.75,-456 977.75,-462 971.75,-468 965.75,-468"/>
<text text-anchor="middle" x="945" y="-446.88" font-family="sans" font-size="10.00">filter_bam</text>
</g>
<!-- 1&#45;&gt;5 -->
<g id="edge20" class="edge">
<title>1&#45;&gt;5</title>
<path fill="none" stroke="grey" stroke-width="2" d="M978.91,-647.12C972.6,-610.62 958.16,-527.13 950.32,-481.74"/>
<polygon fill="grey" stroke="grey" stroke-width="2" points="953.78,-481.22 948.62,-471.96 946.88,-482.41 953.78,-481.22"/>
</g>
<!-- 6 -->
<g id="node7" class="node">
<title>6</title>
<path fill="none" stroke="#56a2d8" stroke-width="2" d="M1111.5,-540C1111.5,-540 1056.5,-540 1056.5,-540 1050.5,-540 1044.5,-534 1044.5,-528 1044.5,-528 1044.5,-516 1044.5,-516 1044.5,-510 1050.5,-504 1056.5,-504 1056.5,-504 1111.5,-504 1111.5,-504 1117.5,-504 1123.5,-510 1123.5,-516 1123.5,-516 1123.5,-528 1123.5,-528 1123.5,-534 1117.5,-540 1111.5,-540"/>
<text text-anchor="middle" x="1084" y="-518.88" font-family="sans" font-size="10.00">sequence_qc</text>
</g>
<!-- 1&#45;&gt;6 -->
<g id="edge22" class="edge">
<title>1&#45;&gt;6</title>
<path fill="none" stroke="grey" stroke-width="2" d="M994.92,-647.02C1012.24,-622.9 1043.18,-579.83 1063.64,-551.34"/>
<polygon fill="grey" stroke="grey" stroke-width="2" points="1066.43,-553.46 1069.42,-543.3 1060.74,-549.38 1066.43,-553.46"/>
</g>
<!-- 7 -->
<g id="node8" class="node">
<title>7</title>
<path fill="none" stroke="#d8c356" stroke-width="2" d="M1151.38,-612C1151.38,-612 1098.62,-612 1098.62,-612 1092.62,-612 1086.62,-606 1086.62,-600 1086.62,-600 1086.62,-588 1086.62,-588 1086.62,-582 1092.62,-576 1098.62,-576 1098.62,-576 1151.38,-576 1151.38,-576 1157.38,-576 1163.38,-582 1163.38,-588 1163.38,-588 1163.38,-600 1163.38,-600 1163.38,-606 1157.38,-612 1151.38,-612"/>
<text text-anchor="middle" x="1125" y="-590.88" font-family="sans" font-size="10.00">targeting_qc</text>
</g>
<!-- 1&#45;&gt;7 -->
<g id="edge24" class="edge">
<title>1&#45;&gt;7</title>
<path fill="none" stroke="grey" stroke-width="2" d="M1018.08,-647.34C1035.9,-638.62 1057.64,-627.97 1076.85,-618.57"/>
<polygon fill="grey" stroke="grey" stroke-width="2" points="1078.27,-621.77 1085.71,-614.23 1075.19,-615.49 1078.27,-621.77"/>
</g>
<!-- 2 -->
<g id="node3" class="node">
<title>2</title>
<path fill="none" stroke="#56d8a2" stroke-width="2" d="M1009.88,-756C1009.88,-756 954.12,-756 954.12,-756 948.12,-756 942.12,-750 942.12,-744 942.12,-744 942.12,-732 942.12,-732 942.12,-726 948.12,-720 954.12,-720 954.12,-720 1009.88,-720 1009.88,-720 1015.88,-720 1021.88,-726 1021.88,-732 1021.88,-732 1021.88,-744 1021.88,-744 1021.88,-750 1015.88,-756 1009.88,-756"/>
<text text-anchor="middle" x="982" y="-741.25" font-family="sans" font-size="10.00">deduplicate</text>
<text text-anchor="middle" x="982" y="-728.5" font-family="sans" font-size="10.00">sm: example</text>
</g>
<!-- 2&#45;&gt;1 -->
<g id="edge17" class="edge">
<title>2&#45;&gt;1</title>
<path fill="none" stroke="grey" stroke-width="2" d="M982,-719.34C982,-712.75 982,-705.08 982,-697.67"/>
<polygon fill="grey" stroke="grey" stroke-width="2" points="985.5,-697.93 982,-687.93 978.5,-697.93 985.5,-697.93"/>
</g>
<!-- 3 -->
<g id="node4" class="node">
<title>3</title>
<path fill="none" stroke="#56d8c9" stroke-width="2" d="M229.38,-324C229.38,-324 158.62,-324 158.62,-324 152.62,-324 146.62,-318 146.62,-312 146.62,-312 146.62,-300 146.62,-300 146.62,-294 152.62,-288 158.62,-288 158.62,-288 229.38,-288 229.38,-288 235.38,-288 241.38,-294 241.38,-300 241.38,-300 241.38,-312 241.38,-312 241.38,-318 235.38,-324 229.38,-324"/>
<text text-anchor="middle" x="194" y="-309.25" font-family="sans" font-size="10.00">align</text>
<text text-anchor="middle" x="194" y="-296.5" font-family="sans" font-size="10.00">type: consensus</text>
</g>
<!-- 3&#45;&gt;0 -->
<g id="edge2" class="edge">
<title>3&#45;&gt;0</title>
<path fill="none" stroke="grey" stroke-width="2" d="M169.87,-287.01C142.87,-265.18 100.72,-225.6 84,-180 65.53,-129.61 91.09,-98.07 138,-72 235.6,-17.76 585.03,-16.94 704.56,-18.31"/>
<polygon fill="grey" stroke="grey" stroke-width="2" points="704.26,-21.81 714.3,-18.44 704.35,-14.81 704.26,-21.81"/>
</g>
<!-- 8 -->
<g id="node9" class="node">
<title>8</title>
<path fill="none" stroke="#56a2d8" stroke-width="2" d="M221.5,-252C221.5,-252 166.5,-252 166.5,-252 160.5,-252 154.5,-246 154.5,-240 154.5,-240 154.5,-228 154.5,-228 154.5,-222 160.5,-216 166.5,-216 166.5,-216 221.5,-216 221.5,-216 227.5,-216 233.5,-222 233.5,-228 233.5,-228 233.5,-240 233.5,-240 233.5,-246 227.5,-252 221.5,-252"/>
<text text-anchor="middle" x="194" y="-230.88" font-family="sans" font-size="10.00">sequence_qc</text>
</g>
<!-- 3&#45;&gt;8 -->
<g id="edge25" class="edge">
<title>3&#45;&gt;8</title>
<path fill="none" stroke="grey" stroke-width="2" d="M194,-287.34C194,-280.75 194,-273.08 194,-265.67"/>
<polygon fill="grey" stroke="grey" stroke-width="2" points="197.5,-265.93 194,-255.93 190.5,-265.93 197.5,-265.93"/>
</g>
<!-- 4 -->
<g id="node5" class="node">
<title>4</title>
<path fill="none" stroke="#9fd856" stroke-width="2" d="M613.12,-396C613.12,-396 540.88,-396 540.88,-396 534.88,-396 528.88,-390 528.88,-384 528.88,-384 528.88,-372 528.88,-372 528.88,-366 534.88,-360 540.88,-360 540.88,-360 613.12,-360 613.12,-360 619.12,-360 625.12,-366 625.12,-372 625.12,-372 625.12,-384 625.12,-384 625.12,-390 619.12,-396 613.12,-396"/>
<text text-anchor="middle" x="577" y="-374.88" font-family="sans" font-size="10.00">build_consensus</text>
</g>
<!-- 4&#45;&gt;3 -->
<g id="edge18" class="edge">
<title>4&#45;&gt;3</title>
<path fill="none" stroke="grey" stroke-width="2" d="M528.1,-368.06C458.43,-355.33 330.64,-331.97 254.9,-318.13"/>
<polygon fill="grey" stroke="grey" stroke-width="2" points="255.75,-314.73 245.28,-316.37 254.49,-321.61 255.75,-314.73"/>
</g>
<!-- 5&#45;&gt;4 -->
<g id="edge19" class="edge">
<title>5&#45;&gt;4</title>
<path fill="none" stroke="grey" stroke-width="2" d="M911.37,-442.6C849.52,-430.84 716.89,-405.61 638.53,-390.7"/>
<polygon fill="grey" stroke="grey" stroke-width="2" points="639.43,-387.31 628.95,-388.88 638.12,-394.19 639.43,-387.31"/>
</g>
<!-- 14 -->
<g id="node15" class="node">
<title>14</title>
<path fill="none" stroke="#56d87b" stroke-width="2" d="M1122,-396C1122,-396 1046,-396 1046,-396 1040,-396 1034,-390 1034,-384 1034,-384 1034,-372 1034,-372 1034,-366 1040,-360 1046,-360 1046,-360 1122,-360 1122,-360 1128,-360 1134,-366 1134,-372 1134,-372 1134,-384 1134,-384 1134,-390 1128,-396 1122,-396"/>
<text text-anchor="middle" x="1084" y="-374.88" font-family="sans" font-size="10.00">decorate_strands</text>
</g>
<!-- 5&#45;&gt;14 -->
<g id="edge31" class="edge">
<title>5&#45;&gt;14</title>
<path fill="none" stroke="grey" stroke-width="2" d="M978.65,-432.05C996.21,-423.21 1017.99,-412.24 1037.17,-402.58"/>
<polygon fill="grey" stroke="grey" stroke-width="2" points="1038.66,-405.75 1046.02,-398.13 1035.51,-399.5 1038.66,-405.75"/>
</g>
<!-- 16 -->
<g id="node17" class="node">
<title>16</title>
<path fill="none" stroke="#d8a456" stroke-width="2" d="M713,-252C713,-252 613,-252 613,-252 607,-252 601,-246 601,-240 601,-240 601,-228 601,-228 601,-222 607,-216 613,-216 613,-216 713,-216 713,-216 719,-216 725,-222 725,-228 725,-228 725,-240 725,-240 725,-246 719,-252 713,-252"/>
<text text-anchor="middle" x="663" y="-230.88" font-family="sans" font-size="10.00">deduplication_metrics</text>
</g>
<!-- 5&#45;&gt;16 -->
<g id="edge34" class="edge">
<title>5&#45;&gt;16</title>
<path fill="none" stroke="grey" stroke-width="2" d="M921.44,-431.12C871.47,-393.2 754.69,-304.58 696.79,-260.64"/>
<polygon fill="grey" stroke="grey" stroke-width="2" points="699.18,-258.06 689.1,-254.81 694.95,-263.64 699.18,-258.06"/>
</g>
<!-- 6&#45;&gt;0 -->
<g id="edge3" class="edge">
<title>6&#45;&gt;0</title>
<path fill="none" stroke="grey" stroke-width="2" d="M1124.35,-513.92C1187.86,-500.2 1304,-463.55 1304,-379 1304,-379 1304,-379 1304,-161 1304,-103.47 1262.16,-96.29 1210,-72 1134.9,-37.03 884.42,-24.14 785.6,-20.35"/>
<polygon fill="grey" stroke="grey" stroke-width="2" points="785.84,-16.85 775.72,-19.98 785.58,-23.85 785.84,-16.85"/>
</g>
<!-- 6&#45;&gt;5 -->
<g id="edge21" class="edge">
<title>6&#45;&gt;5</title>
<path fill="none" stroke="grey" stroke-width="2" d="M1048.56,-503.15C1030.71,-494.17 1008.88,-483.17 989.87,-473.6"/>
<polygon fill="grey" stroke="grey" stroke-width="2" points="991.67,-470.58 981.16,-469.21 988.52,-476.83 991.67,-470.58"/>
</g>
<!-- 9 -->
<g id="node10" class="node">
<title>9</title>
<path fill="none" stroke="#78d856" stroke-width="2" d="M1030.12,-180C1030.12,-180 873.88,-180 873.88,-180 867.88,-180 861.88,-174 861.88,-168 861.88,-168 861.88,-156 861.88,-156 861.88,-150 867.88,-144 873.88,-144 873.88,-144 1030.12,-144 1030.12,-144 1036.12,-144 1042.12,-150 1042.12,-156 1042.12,-156 1042.12,-168 1042.12,-168 1042.12,-174 1036.12,-180 1030.12,-180"/>
<text text-anchor="middle" x="952" y="-165.25" font-family="sans" font-size="10.00">plot_seq_qc</text>
<text text-anchor="middle" x="952" y="-152.5" font-family="sans" font-size="10.00">region: chr5_34760400_34763141</text>
</g>
<!-- 6&#45;&gt;9 -->
<g id="edge26" class="edge">
<title>6&#45;&gt;9</title>
<path fill="none" stroke="grey" stroke-width="2" d="M1066.3,-503C1043.29,-477.61 1006,-428.79 1006,-379 1006,-379 1006,-379 1006,-305 1006,-263.69 985.79,-219.77 970.09,-191.91"/>
<polygon fill="grey" stroke="grey" stroke-width="2" points="973.31,-190.48 965.24,-183.61 967.27,-194.01 973.31,-190.48"/>
</g>
<!-- 11 -->
<g id="node12" class="node">
<title>11</title>
<path fill="none" stroke="#78d856" stroke-width="2" d="M1263.88,-180C1263.88,-180 1148.12,-180 1148.12,-180 1142.12,-180 1136.12,-174 1136.12,-168 1136.12,-168 1136.12,-156 1136.12,-156 1136.12,-150 1142.12,-144 1148.12,-144 1148.12,-144 1263.88,-144 1263.88,-144 1269.88,-144 1275.88,-150 1275.88,-156 1275.88,-156 1275.88,-168 1275.88,-168 1275.88,-174 1269.88,-180 1263.88,-180"/>
<text text-anchor="middle" x="1206" y="-165.25" font-family="sans" font-size="10.00">plot_seq_qc</text>
<text text-anchor="middle" x="1206" y="-152.5" font-family="sans" font-size="10.00">region: htt.exp_500_3831</text>
</g>
<!-- 6&#45;&gt;11 -->
<g id="edge28" class="edge">
<title>6&#45;&gt;11</title>
<path fill="none" stroke="grey" stroke-width="2" d="M1109.9,-503.16C1141.57,-479.01 1191,-432.71 1191,-379 1191,-379 1191,-379 1191,-305 1191,-266.44 1196.54,-222.31 1200.88,-193.62"/>
<polygon fill="grey" stroke="grey" stroke-width="2" points="1204.32,-194.28 1202.42,-183.86 1197.41,-193.19 1204.32,-194.28"/>
</g>
<!-- 6&#45;&gt;14 -->
<g id="edge32" class="edge">
<title>6&#45;&gt;14</title>
<path fill="none" stroke="grey" stroke-width="2" d="M1084,-503.02C1084,-479.54 1084,-438.11 1084,-409.64"/>
<polygon fill="grey" stroke="grey" stroke-width="2" points="1087.5,-409.87 1084,-399.87 1080.5,-409.87 1087.5,-409.87"/>
</g>
<!-- 7&#45;&gt;0 -->
<g id="edge9" class="edge">
<title>7&#45;&gt;0</title>
<path fill="none" stroke="grey" stroke-width="2" d="M1164.08,-593.74C1252.45,-593.17 1460,-578.29 1460,-451 1460,-451 1460,-451 1460,-161 1460,-22.33 936.09,-17.02 785.21,-18.36"/>
<polygon fill="grey" stroke="grey" stroke-width="2" points="785.58,-14.86 775.62,-18.46 785.65,-21.85 785.58,-14.86"/>
</g>
<!-- 7&#45;&gt;6 -->
<g id="edge23" class="edge">
<title>7&#45;&gt;6</title>
<path fill="none" stroke="grey" stroke-width="2" d="M1114.65,-575.34C1110.51,-568.26 1105.63,-559.92 1100.99,-552"/>
<polygon fill="grey" stroke="grey" stroke-width="2" points="1104.09,-550.37 1096.02,-543.51 1098.05,-553.91 1104.09,-550.37"/>
</g>
<!-- 13 -->
<g id="node14" class="node">
<title>13</title>
<path fill="none" stroke="#d85656" stroke-width="2" d="M1420.38,-180C1420.38,-180 1343.62,-180 1343.62,-180 1337.62,-180 1331.62,-174 1331.62,-168 1331.62,-168 1331.62,-156 1331.62,-156 1331.62,-150 1337.62,-144 1343.62,-144 1343.62,-144 1420.38,-144 1420.38,-144 1426.38,-144 1432.38,-150 1432.38,-156 1432.38,-156 1432.38,-168 1432.38,-168 1432.38,-174 1426.38,-180 1420.38,-180"/>
<text text-anchor="middle" x="1382" y="-158.88" font-family="sans" font-size="10.00">plot_targeting_qc</text>
</g>
<!-- 7&#45;&gt;13 -->
<g id="edge30" class="edge">
<title>7&#45;&gt;13</title>
<path fill="none" stroke="grey" stroke-width="2" d="M1164.14,-587.72C1231.45,-576.21 1362,-542.14 1362,-451 1362,-451 1362,-451 1362,-305 1362,-266.27 1369.38,-222.18 1375.18,-193.55"/>
<polygon fill="grey" stroke="grey" stroke-width="2" points="1378.6,-194.29 1377.23,-183.78 1371.75,-192.85 1378.6,-194.29"/>
</g>
<!-- 8&#45;&gt;0 -->
<g id="edge4" class="edge">
<title>8&#45;&gt;0</title>
<path fill="none" stroke="grey" stroke-width="2" d="M153.61,-222.37C132.19,-214.45 107.72,-201.24 95,-180 86.78,-166.27 85.67,-157 95,-144 166.74,-44.02 573.38,-23.84 704.36,-19.91"/>
<polygon fill="grey" stroke="grey" stroke-width="2" points="704.27,-23.42 714.17,-19.64 704.08,-16.42 704.27,-23.42"/>
</g>
<!-- 10 -->
<g id="node11" class="node">
<title>10</title>
<path fill="none" stroke="#78d856" stroke-width="2" d="M272.12,-180C272.12,-180 115.88,-180 115.88,-180 109.88,-180 103.88,-174 103.88,-168 103.88,-168 103.88,-156 103.88,-156 103.88,-150 109.88,-144 115.88,-144 115.88,-144 272.12,-144 272.12,-144 278.12,-144 284.12,-150 284.12,-156 284.12,-156 284.12,-168 284.12,-168 284.12,-174 278.12,-180 272.12,-180"/>
<text text-anchor="middle" x="194" y="-165.25" font-family="sans" font-size="10.00">plot_seq_qc</text>
<text text-anchor="middle" x="194" y="-152.5" font-family="sans" font-size="10.00">region: chr5_34760400_34763141</text>
</g>
<!-- 8&#45;&gt;10 -->
<g id="edge27" class="edge">
<title>8&#45;&gt;10</title>
<path fill="none" stroke="grey" stroke-width="2" d="M194,-215.34C194,-208.75 194,-201.08 194,-193.67"/>
<polygon fill="grey" stroke="grey" stroke-width="2" points="197.5,-193.93 194,-183.93 190.5,-193.93 197.5,-193.93"/>
</g>
<!-- 12 -->
<g id="node13" class="node">
<title>12</title>
<path fill="none" stroke="#78d856" stroke-width="2" d="M429.88,-180C429.88,-180 314.12,-180 314.12,-180 308.12,-180 302.12,-174 302.12,-168 302.12,-168 302.12,-156 302.12,-156 302.12,-150 308.12,-144 314.12,-144 314.12,-144 429.88,-144 429.88,-144 435.88,-144 441.88,-150 441.88,-156 441.88,-156 441.88,-168 441.88,-168 441.88,-174 435.88,-180 429.88,-180"/>
<text text-anchor="middle" x="372" y="-165.25" font-family="sans" font-size="10.00">plot_seq_qc</text>
<text text-anchor="middle" x="372" y="-152.5" font-family="sans" font-size="10.00">region: htt.exp_500_3831</text>
</g>
<!-- 8&#45;&gt;12 -->
<g id="edge29" class="edge">
<title>8&#45;&gt;12</title>
<path fill="none" stroke="grey" stroke-width="2" d="M234.39,-217.12C258.03,-207.82 288.28,-195.92 314.39,-185.66"/>
<polygon fill="grey" stroke="grey" stroke-width="2" points="315.6,-188.94 323.62,-182.02 313.04,-182.43 315.6,-188.94"/>
</g>
<!-- 9&#45;&gt;0 -->
<g id="edge5" class="edge">
<title>9&#45;&gt;0</title>
<path fill="none" stroke="grey" stroke-width="2" d="M932.4,-143.07C911.23,-124.18 876.08,-94.16 843,-72 824.41,-59.55 802.62,-47.53 784.3,-38.09"/>
<polygon fill="grey" stroke="grey" stroke-width="2" points="786.05,-35.05 775.54,-33.66 782.88,-41.3 786.05,-35.05"/>
</g>
<!-- 19 -->
<g id="node20" class="node">
<title>19</title>
<path fill="none" stroke="#c6d856" stroke-width="2" d="M821.62,-108C821.62,-108 746.38,-108 746.38,-108 740.38,-108 734.38,-102 734.38,-96 734.38,-96 734.38,-84 734.38,-84 734.38,-78 740.38,-72 746.38,-72 746.38,-72 821.62,-72 821.62,-72 827.62,-72 833.62,-78 833.62,-84 833.62,-84 833.62,-96 833.62,-96 833.62,-102 827.62,-108 821.62,-108"/>
<text text-anchor="middle" x="784" y="-86.88" font-family="sans" font-size="10.00">make_dashboard</text>
</g>
<!-- 9&#45;&gt;19 -->
<g id="edge38" class="edge">
<title>9&#45;&gt;19</title>
<path fill="none" stroke="grey" stroke-width="2" d="M909.17,-143.15C887.83,-134.26 861.77,-123.41 838.97,-113.91"/>
<polygon fill="grey" stroke="grey" stroke-width="2" points="840.41,-110.71 829.84,-110.1 837.72,-117.18 840.41,-110.71"/>
</g>
<!-- 10&#45;&gt;0 -->
<g id="edge6" class="edge">
<title>10&#45;&gt;0</title>
<path fill="none" stroke="grey" stroke-width="2" d="M229.79,-143.01C271.54,-122.76 343.14,-90.31 408,-72 512.83,-42.41 640.98,-27.98 704.83,-22.2"/>
<polygon fill="grey" stroke="grey" stroke-width="2" points="704.77,-25.72 714.43,-21.36 704.16,-18.75 704.77,-25.72"/>
</g>
<!-- 10&#45;&gt;19 -->
<g id="edge39" class="edge">
<title>10&#45;&gt;19</title>
<path fill="none" stroke="grey" stroke-width="2" d="M284.87,-145.17C287.61,-144.76 290.32,-144.37 293,-144 446.12,-122.61 627.15,-105.06 720.79,-96.55"/>
<polygon fill="grey" stroke="grey" stroke-width="2" points="721.03,-100.04 730.67,-95.66 720.4,-93.07 721.03,-100.04"/>
</g>
<!-- 11&#45;&gt;0 -->
<g id="edge7" class="edge">
<title>11&#45;&gt;0</title>
<path fill="none" stroke="grey" stroke-width="2" d="M1207.76,-143.02C1208.66,-122.63 1206.6,-89.9 1187,-72 1157.6,-45.16 889.31,-27.2 785.63,-21.2"/>
<polygon fill="grey" stroke="grey" stroke-width="2" points="785.9,-17.71 775.72,-20.64 785.51,-24.7 785.9,-17.71"/>
</g>
<!-- 11&#45;&gt;19 -->
<g id="edge41" class="edge">
<title>11&#45;&gt;19</title>
<path fill="none" stroke="grey" stroke-width="2" d="M1135.37,-149.28C1054.8,-135.92 924.25,-114.26 847.01,-101.45"/>
<polygon fill="grey" stroke="grey" stroke-width="2" points="848.05,-98.08 837.61,-99.89 846.9,-104.98 848.05,-98.08"/>
</g>
<!-- 12&#45;&gt;0 -->
<g id="edge8" class="edge">
<title>12&#45;&gt;0</title>
<path fill="none" stroke="grey" stroke-width="2" d="M383.58,-143.09C397.95,-122.44 424.45,-89.15 456,-72 536.46,-28.27 646.19,-19.81 704.57,-18.66"/>
<polygon fill="grey" stroke="grey" stroke-width="2" points="704.26,-22.16 714.21,-18.54 704.17,-15.16 704.26,-22.16"/>
</g>
<!-- 12&#45;&gt;19 -->
<g id="edge42" class="edge">
<title>12&#45;&gt;19</title>
<path fill="none" stroke="grey" stroke-width="2" d="M442.83,-148.97C521.12,-135.66 646.06,-114.44 721.05,-101.7"/>
<polygon fill="grey" stroke="grey" stroke-width="2" points="721.29,-105.21 730.56,-100.08 720.12,-98.3 721.29,-105.21"/>
</g>
<!-- 13&#45;&gt;0 -->
<g id="edge10" class="edge">
<title>13&#45;&gt;0</title>
<path fill="none" stroke="grey" stroke-width="2" d="M1374.69,-143.06C1365.09,-122.04 1346.08,-88.07 1318,-72 1227.18,-20.02 901.31,-17.62 785.88,-18.47"/>
<polygon fill="grey" stroke="grey" stroke-width="2" points="785.88,-14.97 775.91,-18.55 785.94,-21.97 785.88,-14.97"/>
</g>
<!-- 13&#45;&gt;19 -->
<g id="edge37" class="edge">
<title>13&#45;&gt;19</title>
<path fill="none" stroke="grey" stroke-width="2" d="M1330.76,-151.35C1316.02,-148.75 1299.9,-146.09 1285,-144 1128.03,-121.97 942.23,-104.57 847.08,-96.28"/>
<polygon fill="grey" stroke="grey" stroke-width="2" points="847.55,-92.81 837.29,-95.44 846.95,-99.79 847.55,-92.81"/>
</g>
<!-- 14&#45;&gt;0 -->
<g id="edge11" class="edge">
<title>14&#45;&gt;0</title>
<path fill="none" stroke="grey" stroke-width="2" d="M1083.69,-359.05C1082.51,-310.44 1076.93,-177.66 1051,-144 985.63,-59.16 852.93,-31.58 785.82,-22.87"/>
<polygon fill="grey" stroke="grey" stroke-width="2" points="786.28,-19.4 775.93,-21.69 785.44,-26.35 786.28,-19.4"/>
</g>
<!-- 15 -->
<g id="node16" class="node">
<title>15</title>
<path fill="none" stroke="#56c9d8" stroke-width="2" d="M1165.5,-108C1165.5,-108 1092.5,-108 1092.5,-108 1086.5,-108 1080.5,-102 1080.5,-96 1080.5,-96 1080.5,-84 1080.5,-84 1080.5,-78 1086.5,-72 1092.5,-72 1092.5,-72 1165.5,-72 1165.5,-72 1171.5,-72 1177.5,-78 1177.5,-84 1177.5,-84 1177.5,-96 1177.5,-96 1177.5,-102 1171.5,-108 1165.5,-108"/>
<text text-anchor="middle" x="1129" y="-86.88" font-family="sans" font-size="10.00">index_decorated</text>
</g>
<!-- 14&#45;&gt;15 -->
<g id="edge33" class="edge">
<title>14&#45;&gt;15</title>
<path fill="none" stroke="grey" stroke-width="2" d="M1086.81,-359.11C1094.31,-311.46 1114.83,-181.05 1124.21,-121.45"/>
<polygon fill="grey" stroke="grey" stroke-width="2" points="1127.62,-122.3 1125.72,-111.87 1120.7,-121.21 1127.62,-122.3"/>
</g>
<!-- 15&#45;&gt;0 -->
<g id="edge12" class="edge">
<title>15&#45;&gt;0</title>
<path fill="none" stroke="grey" stroke-width="2" d="M1079.59,-75.17C1075.01,-74.04 1070.43,-72.96 1066,-72 965.93,-50.29 846.61,-32.75 785.49,-24.36"/>
<polygon fill="grey" stroke="grey" stroke-width="2" points="786.04,-20.9 775.66,-23.02 785.09,-27.84 786.04,-20.9"/>
</g>
<!-- 16&#45;&gt;0 -->
<g id="edge13" class="edge">
<title>16&#45;&gt;0</title>
<path fill="none" stroke="grey" stroke-width="2" d="M600.1,-225.05C539.09,-214.45 459.72,-191.22 489,-144 536.37,-67.6 645.52,-36.67 704.84,-25.16"/>
<polygon fill="grey" stroke="grey" stroke-width="2" points="705.21,-28.65 714.42,-23.42 703.96,-21.77 705.21,-28.65"/>
</g>
<!-- 17 -->
<g id="node18" class="node">
<title>17</title>
<path fill="none" stroke="#59d856" stroke-width="2" d="M832.12,-180C832.12,-180 675.88,-180 675.88,-180 669.88,-180 663.88,-174 663.88,-168 663.88,-168 663.88,-156 663.88,-156 663.88,-150 669.88,-144 675.88,-144 675.88,-144 832.12,-144 832.12,-144 838.12,-144 844.12,-150 844.12,-156 844.12,-156 844.12,-168 844.12,-168 844.12,-174 838.12,-180 832.12,-180"/>
<text text-anchor="middle" x="754" y="-165.25" font-family="sans" font-size="10.00">plot_deduplication_metrics</text>
<text text-anchor="middle" x="754" y="-152.5" font-family="sans" font-size="10.00">region: chr5_34760400_34763141</text>
</g>
<!-- 16&#45;&gt;17 -->
<g id="edge35" class="edge">
<title>16&#45;&gt;17</title>
<path fill="none" stroke="grey" stroke-width="2" d="M685.96,-215.34C696.44,-207.27 709.06,-197.57 720.57,-188.72"/>
<polygon fill="grey" stroke="grey" stroke-width="2" points="722.54,-191.62 728.33,-182.75 718.27,-186.07 722.54,-191.62"/>
</g>
<!-- 18 -->
<g id="node19" class="node">
<title>18</title>
<path fill="none" stroke="#59d856" stroke-width="2" d="M634,-180C634,-180 510,-180 510,-180 504,-180 498,-174 498,-168 498,-168 498,-156 498,-156 498,-150 504,-144 510,-144 510,-144 634,-144 634,-144 640,-144 646,-150 646,-156 646,-156 646,-168 646,-168 646,-174 640,-180 634,-180"/>
<text text-anchor="middle" x="572" y="-165.25" font-family="sans" font-size="10.00">plot_deduplication_metrics</text>
<text text-anchor="middle" x="572" y="-152.5" font-family="sans" font-size="10.00">region: htt.exp_500_3831</text>
</g>
<!-- 16&#45;&gt;18 -->
<g id="edge36" class="edge">
<title>16&#45;&gt;18</title>
<path fill="none" stroke="grey" stroke-width="2" d="M640.04,-215.34C629.56,-207.27 616.94,-197.57 605.43,-188.72"/>
<polygon fill="grey" stroke="grey" stroke-width="2" points="607.73,-186.07 597.67,-182.75 603.46,-191.62 607.73,-186.07"/>
</g>
<!-- 17&#45;&gt;0 -->
<g id="edge14" class="edge">
<title>17&#45;&gt;0</title>
<path fill="none" stroke="grey" stroke-width="2" d="M741.39,-143.31C735.13,-133.43 728.22,-120.6 725,-108 719.97,-88.34 724.99,-66.07 731.25,-48.72"/>
<polygon fill="grey" stroke="grey" stroke-width="2" points="734.43,-50.2 734.9,-39.61 727.93,-47.6 734.43,-50.2"/>
</g>
<!-- 17&#45;&gt;19 -->
<g id="edge40" class="edge">
<title>17&#45;&gt;19</title>
<path fill="none" stroke="grey" stroke-width="2" d="M761.57,-143.34C764.5,-136.51 767.93,-128.5 771.21,-120.83"/>
<polygon fill="grey" stroke="grey" stroke-width="2" points="774.41,-122.25 775.14,-111.68 767.98,-119.5 774.41,-122.25"/>
</g>
<!-- 18&#45;&gt;0 -->
<g id="edge15" class="edge">
<title>18&#45;&gt;0</title>
<path fill="none" stroke="grey" stroke-width="2" d="M593.91,-143.02C624.07,-118.26 678.56,-73.53 713.2,-45.1"/>
<polygon fill="grey" stroke="grey" stroke-width="2" points="715.42,-47.81 720.93,-38.76 710.98,-42.4 715.42,-47.81"/>
</g>
<!-- 18&#45;&gt;19 -->
<g id="edge43" class="edge">
<title>18&#45;&gt;19</title>
<path fill="none" stroke="grey" stroke-width="2" d="M626.32,-143.06C655.32,-133.49 691.16,-121.65 721.34,-111.69"/>
<polygon fill="grey" stroke="grey" stroke-width="2" points="722.19,-115.1 730.59,-108.64 719.99,-108.45 722.19,-115.1"/>
</g>
<!-- 19&#45;&gt;0 -->
<g id="edge16" class="edge">
<title>19&#45;&gt;0</title>
<path fill="none" stroke="grey" stroke-width="2" d="M774.16,-71.34C770.26,-64.34 765.68,-56.12 761.31,-48.28"/>
<polygon fill="grey" stroke="grey" stroke-width="2" points="764.37,-46.58 756.45,-39.55 758.26,-49.99 764.37,-46.58"/>
</g>
</g>
</svg>
